<svg width="1000" height="600" xmlns="http://www.w3.org/2000/svg"><defs><linearGradient id="a" gradientTransform="rotate(90)"><stop offset="5%" stop-color="#d2ba8d"/><stop offset="95%" stop-color="#ddcba9"/></linearGradient><linearGradient id="b" gradientTransform="rotate(90)"><stop offset="5%" stop-color="#467f6d"/><stop offset="95%" stop-color="#749f91"/></linearGradient><linearGradient id="c" gradientTransform="rotate(90)"><stop offset="5%" stop-color="#034e57"/><stop offset="95%" stop-color="#427a81"/></linearGradient><linearGradient id="d" gradientTransform="rotate(90)"><stop offset="5%" stop-color="#032b42"/><stop offset="95%" stop-color="#426071"/></linearGradient><linearGradient id="e" gradientTransform="rotate(90)"><stop offset="5%" stop-color="#031634"/><stop offset="95%" stop-color="#425066"/></linearGradient><linearGradient id="f" gradientTransform="rotate(90)"><stop offset="5%" stop-color="#031634"/><stop offset="95%" stop-color="#425066"/></linearGradient></defs><path fill="#e8ddcb" d="M0 0h1000v600H0z"/><path d="M0 85c24.43 3.688 48.86 7.375 69 7s35.992-4.813 56-10c20.008-5.187 44.174-11.124 68-9 23.826 2.124 47.31 12.31 70 14 22.69 1.69 44.582-5.117 69-2s51.36 16.158 75 13c23.64-3.158 43.98-22.514 66-25 22.02-2.486 45.723 11.898 65 20s34.129 9.92 55 3c20.871-6.92 47.761-22.582 73-29 25.239-6.418 48.826-3.594 71 4 22.174 7.594 42.933 19.957 67 16 24.067-3.957 51.44-24.236 70-27 18.56-2.764 28.304 11.987 51 19s58.342 6.29 73 6c14.658-.29 8.33-.145 42 0l-40 515H0Z" fill="url(#a)"/><path d="M0 171c25.789-13.323 51.578-26.645 73-24 21.422 2.645 38.478 21.258 58 27 19.522 5.742 41.511-1.387 67 1 25.489 2.387 54.477 14.289 78 17 23.523 2.711 41.582-3.768 62-13s43.194-21.218 68-26c24.806-4.782 51.641-2.36 70-3 18.359-.64 28.241-4.34 48 3s49.395 25.718 73 27c23.605 1.282 41.18-14.532 64-15 22.82-.468 50.884 14.41 74 15 23.116.59 41.285-13.11 61-14 19.715-.89 40.975 11.03 64 9 23.025-2.03 47.814-18.008 72-18 24.186.008 47.767 16.002 59 21 11.233 4.998 10.116-1.001 49-7l-40 429H0Z" fill="url(#b)"/><path d="M0 257c20.295 8.677 40.59 17.353 63 16 22.41-1.353 46.936-12.736 68-23s38.666-19.41 60-12c21.334 7.41 46.401 31.377 72 37 25.599 5.623 51.729-7.096 74-9s40.684 7.009 64 2c23.316-5.009 51.537-23.938 75-35 23.463-11.062 42.168-14.257 63 1s43.79 48.964 64 46c20.21-2.964 37.674-42.601 60-48 22.326-5.399 49.514 23.44 75 29 25.486 5.56 49.271-12.162 71-14 21.729-1.838 41.402 12.208 62 15s42.123-5.672 65-13c22.877-7.328 47.108-13.522 58-12 10.892 1.522 8.446 10.761 46 20l-40 343H0Z" fill="url(#c)"/><path d="M0 342c17.388-12.588 34.775-25.176 59-17 24.225 8.176 55.286 37.116 77 37 21.714-.116 34.081-29.287 56-43 21.919-13.713 53.39-11.97 79 1s45.361 37.165 68 33c22.639-4.165 48.165-36.689 68-36 19.835.689 33.977 34.59 54 35 20.023.41 45.926-32.673 68-35 22.074-2.327 40.318 26.102 63 30 22.682 3.898 49.8-16.735 72-25 22.2-8.265 39.479-4.161 63 3s53.283 17.38 75 26c21.717 8.62 35.388 15.64 57 16 21.612.36 51.165-5.942 78-6 26.835-.058 50.953 6.126 61 4 10.047-2.126 6.024-12.563 42-23l-40 258H0Z" fill="url(#d)"/><path d="M0 428c19.039-9.88 38.077-19.76 59-23 20.923-3.24 43.73.157 69 4 25.27 3.843 53.003 8.131 75 20s38.258 31.318 57 23c18.742-8.318 39.964-44.404 67-48 27.036-3.596 59.887 25.3 82 40s33.489 15.206 52 4c18.511-11.206 44.158-34.124 68-38 23.842-3.876 45.88 11.288 71 22 25.12 10.712 53.324 16.97 76 12 22.676-4.97 39.824-21.167 59-20 19.176 1.167 40.379 19.7 63 26 22.621 6.3 46.661.37 67-1s36.976 1.824 64-2 64.435-14.664 78-19c13.565-4.336 3.282-2.168 33 0l-40 172H0Z" fill="url(#e)"/><path d="M0 514c19.048 12.66 38.095 25.32 63 21s55.667-25.62 77-34c21.333-8.38 33.237-3.837 55-4 21.763-.163 53.384-5.032 75 0s33.227 19.965 55 25c21.773 5.035 53.708.171 75-4s31.94-7.65 56-7c24.06.65 61.531 5.427 86 4 24.469-1.427 35.935-9.059 57-9 21.065.059 51.728 7.807 72 8 20.272.193 30.152-7.17 52 0s55.664 28.871 83 24c27.336-4.871 48.193-36.316 65-46 16.807-9.684 29.563 2.393 52 10s54.553 10.745 69 12c14.447 1.255 11.223.628 48 0l-40 86H0Z" fill="url(#f)"/><path d="M0 599c24.603 4.459 49.206 8.917 73 8 23.794-.917 46.78-7.21 67-14s37.676-14.075 60-14c22.324.075 49.517 7.509 72 19 22.483 11.491 40.257 27.04 58 25 17.743-2.04 35.454-21.667 60-30 24.546-8.333 55.925-5.37 82-4 26.075 1.37 46.846 1.15 65 1 18.154-.15 33.692-.23 57 5s54.388 15.77 77 20c22.612 4.23 36.757 2.149 60-5 23.243-7.149 55.584-19.366 77-22 21.416-2.634 31.905 4.315 52 10s49.795 10.108 77 16c27.205 5.892 51.916 13.255 62 11 10.084-2.255 5.542-14.127 41-26l-40 1H0Z" fill="url(#gradient_7)"/></svg>