<svg width="500" height="300" xmlns="http://www.w3.org/2000/svg"><defs><linearGradient id="a" gradientTransform="rotate(90)"><stop offset="5%" stop-color="#db4a4d"/><stop offset="95%" stop-color="#e47779"/></linearGradient><linearGradient id="b" gradientTransform="rotate(90)"><stop offset="5%" stop-color="#e5625c"/><stop offset="95%" stop-color="#eb8984"/></linearGradient><linearGradient id="c" gradientTransform="rotate(90)"><stop offset="5%" stop-color="#ef9169"/><stop offset="95%" stop-color="#f3ac8e"/></linearGradient><linearGradient id="d" gradientTransform="rotate(90)"><stop offset="5%" stop-color="#f9bf76"/><stop offset="95%" stop-color="#facf98"/></linearGradient><linearGradient id="e" gradientTransform="rotate(90)"><stop offset="5%" stop-color="#c4b99e"/><stop offset="95%" stop-color="#d2cab6"/></linearGradient><linearGradient id="f" gradientTransform="rotate(90)"><stop offset="5%" stop-color="#8eb2c5"/><stop offset="95%" stop-color="#aac5d3"/></linearGradient><linearGradient id="g" gradientTransform="rotate(90)"><stop offset="5%" stop-color="#78839d"/><stop offset="95%" stop-color="#99a2b5"/></linearGradient><linearGradient id="h" gradientTransform="rotate(90)"><stop offset="5%" stop-color="#615375"/><stop offset="95%" stop-color="#887e97"/></linearGradient></defs><path fill="#d1313d" d="M0 0h500v300H0z"/><path d="M0 33c9.948 4.93 19.895 9.859 32 7s26.366-13.505 37-17c10.634-3.495 17.639.162 28 3s24.078 4.856 36 4c11.922-.856 22.049-4.587 32-6 9.951-1.413 19.727-.508 32 4s27.045 12.617 40 15c12.955 2.383 24.094-.962 33-2 8.906-1.038 15.58.23 27 0s27.586-1.962 40-3c12.414-1.038 21.077-1.385 30-1 8.923.385 18.106 1.5 28-1 9.894-2.5 20.497-8.619 34-7 13.503 1.619 29.905 10.974 42 12 12.095 1.026 19.884-6.278 24-9 4.116-2.722 4.558-.86 45 1l-40 267H0Z" fill="url(#a)"/><path d="M0 66c12.3-.111 24.6-.223 35-2 10.4-1.777 18.897-5.22 30-6 11.103-.78 24.81 1.102 36 5 11.19 3.898 19.863 9.81 29 9 9.137-.81 18.74-8.344 32-10 13.26-1.656 30.18 2.566 42 4 11.82 1.434 18.541.08 29-1s24.655-1.883 36-3c11.345-1.117 19.84-2.546 31-3 11.16-.454 24.984.067 35 4 10.016 3.933 16.223 11.28 28 9 11.777-2.28 29.125-14.185 41-14 11.875.185 18.276 12.462 28 15 9.724 2.538 22.772-4.663 35-8 12.228-3.337 23.637-2.81 29-2 5.363.81 4.682 1.905 44 3l-40 234H0Z" fill="url(#b)"/><path d="M0 100c11.538-5.541 23.076-11.082 35-8 11.924 3.082 24.235 14.788 35 16 10.765 1.212 19.984-8.07 29-9 9.016-.93 17.828 6.492 30 5s27.703-11.9 40-13c12.297-1.1 21.358 7.105 31 9 9.642 1.895 19.864-2.52 32-4s26.185-.028 38 3c11.815 3.028 21.396 7.631 31 7 9.604-.631 19.231-6.496 30-6 10.769.496 22.679 7.354 33 7 10.321-.354 19.053-7.92 31-12s27.11-4.67 39-1 20.509 11.604 33 12c12.491.396 28.855-6.744 35-9 6.145-2.256 2.073.372 38 3l-40 200H0Z" fill="url(#c)"/><path d="M0 133c8.794 1.112 17.588 2.224 30 2 12.412-.224 28.442-1.782 39-2 10.558-.218 15.642.906 26-2s25.988-9.843 39-7 23.405 15.465 33 15c9.595-.465 18.393-14.016 30-15s26.024 10.598 37 16c10.976 5.402 18.51 4.623 28 0 9.49-4.623 20.935-13.092 33-13 12.065.092 24.748 8.744 36 9 11.252.256 21.072-7.883 33-9s25.964 4.79 39 8c13.036 3.21 25.071 3.727 34 2 8.929-1.727 14.75-5.696 27-6 12.25-.304 30.929 3.056 38 4 7.071.944 2.536-.528 38-2l-40 167H0Z" fill="url(#d)"/><path d="M0 166c13.263 3.992 26.526 7.983 36 8 9.474.017 15.159-3.942 26-7s26.84-5.215 39-8 20.482-6.198 30-3c9.518 3.198 20.23 13.008 31 12 10.77-1.008 21.594-12.836 34-12 12.406.836 26.392 14.334 37 20s17.839 3.5 29-1c11.161-4.5 26.254-11.336 40-14 13.746-2.664 26.146-1.155 35-1 8.854.155 14.163-1.042 25-1 10.837.042 27.202 1.323 39 4 11.798 2.677 19.028 6.748 29 7 9.972.252 22.685-3.317 35-4 12.315-.683 24.233 1.52 30 2 5.767.48 5.384-.76 45-2l-40 134H0Z" fill="url(#e)"/><path d="M0 200c11.713-.436 23.426-.872 34 0 10.574.872 20.009 3.054 30 5 9.991 1.946 20.538 3.658 32 0s23.839-12.684 36-11c12.161 1.684 24.107 14.08 36 15 11.893.92 23.732-9.635 35-11 11.268-1.365 21.965 6.46 32 6 10.035-.46 19.41-9.204 31-12 11.59-2.796 25.398.355 37 4s21 7.784 30 6c9-1.784 17.6-9.492 29-12 11.4-2.508 25.596.184 38 2s23.016 2.755 33 3c9.984.245 19.342-.203 33 1 13.658 1.203 31.617 4.058 38 5 6.383.942 1.192-.029 36-1l-40 100H0Z" fill="url(#f)"/><path d="M0 233c13.723.208 27.446.416 37 3 9.554 2.584 14.94 7.543 26 6 11.06-1.543 27.793-9.588 40-10 12.207-.412 19.886 6.807 29 10 9.114 3.193 19.661 2.359 31-1 11.339-3.359 23.468-9.241 36-9 12.532.241 25.467 6.607 36 10 10.533 3.393 18.663 3.812 30-1 11.337-4.812 25.88-14.855 37-14 11.12.855 18.815 12.609 30 15 11.185 2.391 25.86-4.58 38-7s21.745-.29 31 1c9.255 1.29 18.161 1.737 28 2 9.839.263 20.61.34 35-2s32.397-7.097 39-8c6.603-.903 1.801 2.049 37 5l-40 67H0Z" fill="url(#g)"/><path d="M0 266c12.816 2.181 25.633 4.362 37 7s21.286 5.732 31 2c9.714-3.732 19.225-14.29 30-17 10.775-2.71 22.814 2.426 33 4 10.186 1.574 18.518-.414 30-2s26.116-2.77 38 0 21.02 9.495 32 11c10.98 1.505 23.804-2.21 35-1 11.196 1.21 20.765 7.347 32 5 11.235-2.347 24.136-13.177 37-17 12.864-3.823 25.69-.64 35 2 9.31 2.64 15.102 4.735 27 5 11.898.265 29.9-1.3 41 1 11.1 2.3 15.296 8.465 25 8 9.704-.465 24.915-7.562 32-10 7.085-2.438 6.042-.22 45 2l-40 34H0Z" fill="url(#h)"/></svg>