<svg width="1920" height="1080" xmlns="http://www.w3.org/2000/svg"><defs><linearGradient id="a" gradientTransform="rotate(90)"><stop offset="5%" stop-color="#d2ba8d"/><stop offset="95%" stop-color="#ddcba9"/></linearGradient><linearGradient id="b" gradientTransform="rotate(90)"><stop offset="5%" stop-color="#467f6d"/><stop offset="95%" stop-color="#749f91"/></linearGradient><linearGradient id="c" gradientTransform="rotate(90)"><stop offset="5%" stop-color="#034e57"/><stop offset="95%" stop-color="#427a81"/></linearGradient><linearGradient id="d" gradientTransform="rotate(90)"><stop offset="5%" stop-color="#032b42"/><stop offset="95%" stop-color="#426071"/></linearGradient><linearGradient id="e" gradientTransform="rotate(90)"><stop offset="5%" stop-color="#031634"/><stop offset="95%" stop-color="#425066"/></linearGradient><linearGradient id="f" gradientTransform="rotate(90)"><stop offset="5%" stop-color="#031634"/><stop offset="95%" stop-color="#425066"/></linearGradient></defs><path fill="#e8ddcb" d="M0 0h1920v1080H0z"/><path d="M0 154c39.842 8.352 79.685 16.704 125 18 45.315 1.296 96.104-4.464 138-8 41.896-3.536 74.899-4.85 116-16s90.301-32.137 134-26c43.699 6.137 81.897 39.398 124 52 42.103 12.602 88.11 4.544 129 10s76.664 24.426 116 7 82.234-71.247 134-81c51.766-9.753 112.402 24.56 152 34 39.598 9.44 58.16-5.996 93 6s85.957 51.424 133 46c47.043-5.424 90.012-55.701 132-68s82.997 13.381 131 31 103 27.177 148 25c45-2.177 80-16.088 155-30l-40 926H0Z" fill="url(#a)"/><path d="M0 308c36.514-21.993 73.028-43.987 120-39 46.972 4.987 104.404 36.954 148 55 43.596 18.046 73.358 22.172 115 2 41.642-20.172 95.165-64.644 144-63 48.835 1.644 92.984 49.402 132 52 39.016 2.598 72.9-39.963 107-33 34.1 6.963 68.418 63.452 115 71 46.582 7.548 105.428-33.843 155-54 49.572-20.157 89.87-19.078 130-15 40.13 4.078 80.09 11.156 116 23s67.772 28.453 116 14c48.228-14.453 112.824-59.967 153-54 40.176 5.967 55.932 63.414 94 65 38.068 1.586 98.448-52.69 148-66 49.552-13.31 88.276 14.345 167 42l-40 772H0Z" fill="url(#b)"/><path d="M0 462c50.806-18.69 101.612-37.382 146-34 44.388 3.382 82.358 28.837 121 33 38.642 4.163 77.957-12.965 122-2 44.043 10.965 92.815 50.022 136 48 43.185-2.022 80.782-45.123 121-58 40.218-12.877 83.058 4.468 120 18 36.942 13.532 67.988 23.249 111 14 43.012-9.249 97.99-37.464 143-29 45.01 8.464 80.049 53.607 125 48 44.951-5.607 99.814-61.963 145-75 45.186-13.037 80.693 17.244 124 28s94.412 1.986 135 0c40.588-1.986 70.658 2.811 107-3s78.955-22.232 124-22c45.045.232 92.523 17.116 180 34l-40 618H0Z" fill="url(#c)"/><path d="M0 617c42.045 19.639 84.09 39.277 126 43 41.91 3.723 83.685-8.47 123-30s76.17-52.397 121-52c44.83.397 97.632 32.058 145 51 47.368 18.942 89.302 25.164 128 22 38.698-3.164 74.16-15.716 112-36s78.055-48.302 128-38c49.945 10.302 109.62 58.923 155 65 45.38 6.077 76.465-30.389 113-49s78.52-19.367 121-16c42.48 3.367 85.455 10.858 124 27s72.662 40.935 122 39c49.338-1.935 113.899-30.598 162-35 48.101-4.402 79.743 15.457 117 21 37.257 5.543 80.128-3.228 163-12l-40 463H0Z" fill="url(#d)"/><path d="M0 771c42.289-10.603 84.577-21.207 132-29 47.423-7.793 99.98-12.777 142-6 42.02 6.777 73.503 25.315 110 26 36.497.685 78.009-16.484 126-5 47.991 11.484 102.463 51.62 146 56 43.537 4.38 76.14-26.998 116-48s86.98-31.629 127-34c40.02-2.371 72.941 3.513 116 11s96.255 16.578 142 25c45.745 8.422 84.039 16.177 122 21s75.589 6.715 118-7 89.605-43.037 138-50c48.395-6.963 97.991 8.433 142 8 44.009-.433 82.431-16.695 122-14 39.569 2.695 80.284 24.348 161 46l-40 309H0Z" fill="url(#e)"/><path d="M0 925c44.03 6.047 88.06 12.094 128 15 39.94 2.906 75.79 2.671 122-8 46.21-10.671 102.778-31.779 148-34 45.222-2.221 79.097 14.443 118 22 38.903 7.557 82.835 6.005 124 8 41.165 1.995 79.562 7.537 118 5s76.918-13.154 126-11c49.082 2.154 108.767 17.08 153 27 44.233 9.92 73.014 14.837 109 17 35.986 2.163 79.178 1.574 128-7s103.276-25.132 148-19c44.724 6.132 79.72 34.953 114 23 34.28-11.953 67.845-64.68 111-82 43.155-17.32 95.902.766 143 14s88.55 21.617 170 30l-40 155H0Z" fill="url(#f)"/><path d="M0 1079c42.44 13.004 84.879 26.008 128 20 43.121-6.008 86.924-31.028 133-33 46.076-1.972 94.425 19.105 133 27s67.376 2.607 108-8c40.624-10.607 93.073-26.534 136-23 42.927 3.534 76.333 26.527 115 43s82.594 26.424 134 11c51.406-15.424 110.29-56.224 151-63 40.71-6.776 63.246 20.471 107 32s108.727 7.34 153 12c44.273 4.66 67.847 18.172 101 9 33.153-9.172 75.886-41.025 118-44 42.114-2.975 83.607 22.93 133 22 49.393-.93 106.684-28.694 153-34 46.316-5.306 81.658 11.847 157 29l-40 1H0Z" fill="url(#gradient_7)"/></svg>