<svg width="7680" height="4320" xmlns="http://www.w3.org/2000/svg"><defs><linearGradient id="a" gradientTransform="rotate(90)"><stop offset="5%" stop-color="#d2ba8d"/><stop offset="95%" stop-color="#ddcba9"/></linearGradient><linearGradient id="b" gradientTransform="rotate(90)"><stop offset="5%" stop-color="#467f6d"/><stop offset="95%" stop-color="#749f91"/></linearGradient><linearGradient id="c" gradientTransform="rotate(90)"><stop offset="5%" stop-color="#034e57"/><stop offset="95%" stop-color="#427a81"/></linearGradient><linearGradient id="d" gradientTransform="rotate(90)"><stop offset="5%" stop-color="#032b42"/><stop offset="95%" stop-color="#426071"/></linearGradient><linearGradient id="e" gradientTransform="rotate(90)"><stop offset="5%" stop-color="#031634"/><stop offset="95%" stop-color="#425066"/></linearGradient><linearGradient id="f" gradientTransform="rotate(90)"><stop offset="5%" stop-color="#031634"/><stop offset="95%" stop-color="#425066"/></linearGradient></defs><path fill="#e8ddcb" d="M0 0h7680v4320H0z"/><path d="M0 617c189.455-11.606 378.91-23.212 566 27 187.09 50.212 371.816 162.242 531 128 159.184-34.242 292.825-214.757 441-245 148.175-30.243 310.884 89.786 493 124 182.116 34.214 383.638-17.385 545-57 161.362-39.615 282.564-67.244 444-59 161.436 8.244 363.105 52.363 545 81 181.895 28.637 344.015 41.792 526 80s383.835 101.468 577 23c193.165-78.468 377.646-298.664 526-287 148.354 11.664 260.581 255.189 421 284 160.419 28.811 369.03-157.092 534-173 164.97-15.908 286.3 138.179 470 141 183.7 2.821 429.772-145.622 617-182 187.228-36.378 315.614 39.311 484 115l-40 3703H0Z" fill="url(#a)"/><path d="M0 1234c198.483 65.548 396.966 131.097 566 166 169.034 34.903 308.62 39.162 460-19s314.556-178.743 482-218c167.444-39.257 339.158 2.81 515-8 175.842-10.81 355.814-74.498 539-65 183.186 9.498 369.588 92.183 555 161 185.412 68.817 369.835 123.768 537 137 167.165 13.232 317.072-15.253 486-1s356.879 71.244 528 21c171.121-50.244 325.414-207.723 479-213 153.586-5.277 306.466 141.65 484 175 177.534 33.35 379.72-46.875 551-102 171.28-55.125 311.652-85.149 470-45s334.67 150.471 509 164c174.33 13.529 346.665-69.736 559-153l-40 3086H0Z" fill="url(#b)"/><path d="M0 1851c201.094 101.891 402.188 203.782 552 140 149.812-63.782 248.34-293.238 429-314s443.45 167.168 612 201c168.55 33.832 242.861-86.435 402-70 159.139 16.435 403.106 169.57 587 152 183.894-17.57 307.714-205.849 452-201 144.286 4.849 309.036 202.823 490 201 180.964-1.823 378.14-203.445 554-245 175.86-41.555 330.402 76.957 486 133 155.598 56.043 312.25 49.615 499 53 186.75 3.385 403.596 16.581 572 5s288.366-47.94 454-88c165.634-40.06 376.94-83.824 574-35s379.874 190.235 547 217c167.126 26.765 318.563-61.118 510-149l-40 2469H0Z" fill="url(#c)"/><path d="M0 2468c131.567 82.592 263.133 165.183 450 149 186.867-16.183 429.034-131.14 627-187 197.966-55.86 351.73-52.62 501-45 149.27 7.62 294.047 19.621 443 79 148.953 59.379 302.084 166.136 498 132 195.916-34.136 434.618-209.166 606-240 171.382-30.834 275.444 82.526 425 171 149.556 88.474 344.608 152.062 543 100 198.392-52.062 400.126-219.772 563-224 162.874-4.228 286.889 155.028 464 189 177.111 33.972 407.32-57.339 588-145s311.832-171.672 451-141c139.168 30.672 286.353 176.027 466 240 179.647 63.973 391.756 46.564 573 20 181.244-26.564 331.622-62.282 522-98l-40 1852H0Z" fill="url(#d)"/><path d="M0 3085c136.368 26.635 272.736 53.27 465 18s440.424-132.444 611-174c170.576-41.556 263.569-27.493 429 44 165.431 71.493 403.301 200.415 601 210 197.699 9.585 355.225-100.166 488-149 132.775-48.834 240.797-36.752 412-6 171.203 30.752 405.587 80.174 602 119 196.413 38.826 354.853 67.055 501 51 146.147-16.055 279.999-76.393 464-129 184.001-52.607 418.15-97.482 609-98 190.85-.518 338.399 43.32 485 111s292.254 159.203 472 152c179.746-7.203 393.585-113.132 560-194 166.415-80.868 285.404-136.677 441-125 155.596 11.677 347.798 90.838 580 170l-40 1235H0Z" fill="url(#e)"/><path d="M0 3702c187.359 19.933 374.718 39.866 539 78 164.282 38.134 305.487 94.47 492 86 186.513-8.47 418.333-81.742 581-124 162.667-42.258 256.181-53.5 429-58 172.819-4.5 424.942-2.257 595 45s258.05 139.527 409 158c150.95 18.473 364.856-36.852 550-90s341.524-104.119 500-172 319.048-152.674 489-94c169.952 58.674 349.282 260.813 522 314 172.718 53.187 338.822-42.58 533-139s416.43-193.494 573-147 247.461 236.556 419 302c171.539 65.444 423.725 6.27 612-41 188.275-47.27 312.637-82.635 477-118l-40 618H0Z" fill="url(#f)"/><path d="M0 4319c206.217 73.965 412.434 147.93 587 157 174.566 9.07 317.48-46.757 457-147 139.52-100.243 275.648-244.904 443-192 167.352 52.904 365.93 303.373 546 357 180.07 53.627 341.636-89.587 494-159 152.364-69.413 295.528-65.024 475-46 179.472 19.024 395.251 52.682 565 30 169.749-22.682 293.467-101.704 475-106 181.533-4.296 420.88 66.132 624 55 203.12-11.132 370.013-103.826 517-112 146.987-8.174 274.068 68.172 426 148 151.932 79.828 328.714 163.14 517 118 188.286-45.14 388.077-218.73 557-264 168.923-45.27 306.978 37.78 468 86s345.011 61.61 569 75l-40 1H0Z" fill="url(#gradient_7)"/></svg>