<svg width="1000" height="600" xmlns="http://www.w3.org/2000/svg"><defs><linearGradient id="a" gradientTransform="rotate(90)"><stop offset="5%" stop-color="#df8255"/><stop offset="95%" stop-color="#e7a17f"/></linearGradient><linearGradient id="b" gradientTransform="rotate(90)"><stop offset="5%" stop-color="#d14a43"/><stop offset="95%" stop-color="#dc7772"/></linearGradient><linearGradient id="c" gradientTransform="rotate(90)"><stop offset="5%" stop-color="#c02942"/><stop offset="95%" stop-color="#cf5e71"/></linearGradient><linearGradient id="d" gradientTransform="rotate(90)"><stop offset="5%" stop-color="#78263b"/><stop offset="95%" stop-color="#995c6c"/></linearGradient><linearGradient id="e" gradientTransform="rotate(90)"><stop offset="5%" stop-color="#54404d"/><stop offset="95%" stop-color="#7e6f79"/></linearGradient><linearGradient id="f" gradientTransform="rotate(90)"><stop offset="5%" stop-color="#53777a"/><stop offset="95%" stop-color="#7e999b"/></linearGradient></defs><path fill="#ecd078" d="M0 0h1000v600H0z"/><path d="M0 85c23.8 7.869 47.6 15.738 70 13 22.4-2.738 43.399-16.082 65-12 21.601 4.082 43.804 25.59 66 21 22.196-4.59 44.386-35.278 67-38 22.614-2.722 45.65 22.522 66 32 20.35 9.478 38.01 3.191 59 4 20.99.809 45.306 8.713 68 1 22.694-7.713 43.764-31.042 66-34 22.236-2.958 45.636 14.456 68 20 22.364 5.544 43.691-.782 68 1 24.309 1.782 51.6 11.67 76 8s45.911-20.9 65-18c19.089 2.9 35.756 25.932 57 27 21.244 1.068 47.066-19.828 74-27 26.934-7.172 54.981-.62 66 2 11.019 2.62 5.01 1.31 39 0l-40 515H0Z" fill="url(#a)"/><path d="M0 171c24.556 3.514 49.112 7.028 71 10 21.888 2.972 41.106 5.401 61 7 19.894 1.599 40.462 2.367 65-4 24.538-6.367 53.046-19.868 75-15 21.954 4.868 37.354 28.106 58 22 20.646-6.106 46.54-41.555 69-40 22.46 1.555 41.487 40.114 64 41 22.513.886 48.511-35.903 70-42 21.489-6.097 38.468 18.496 59 21 20.532 2.504 44.618-17.08 69-13 24.382 4.08 49.06 31.825 73 32 23.94.175 47.144-27.221 68-37s39.363-1.94 62 0 49.402-2.016 75-5 50.028-4.995 60-1c9.972 3.995 5.486 13.998 41 24l-40 429H0Z" fill="url(#b)"/><path d="M0 257c17.465-.644 34.93-1.289 60-2 25.07-.711 57.742-1.49 81 5 23.258 6.49 37.102 20.246 55 21 17.898.754 39.851-11.493 64-16s50.493-1.272 71-7c20.507-5.728 35.175-20.418 60-21 24.825-.582 59.807 12.943 83 17 23.193 4.057 34.598-1.356 56 5s52.8 24.48 78 20c25.2-4.48 44.2-31.567 66-40 21.8-8.433 46.401 1.786 68 4 21.599 2.214 40.196-3.578 59-7 18.804-3.422 37.813-4.474 58 3 20.187 7.474 41.55 23.474 68 25 26.45 1.526 57.986-11.421 71-15 13.014-3.579 7.507 2.21 42 8l-40 343H0Z" fill="url(#c)"/><path d="M0 342c24.15 1.902 48.301 3.805 72 3 23.699-.805 46.946-4.317 68-1 21.054 3.317 39.915 13.465 59 14 19.085.535 38.395-8.542 59-11 20.605-2.458 42.505 1.704 68 7 25.495 5.296 54.583 11.724 79 6s44.161-23.602 66-28 45.772 4.684 66 4c20.228-.684 36.751-11.136 55-16 18.249-4.864 38.224-4.142 65-3 26.776 1.142 60.352 2.703 84 10 23.648 7.297 37.367 20.328 57 23 19.633 2.672 45.18-5.016 66-14s36.913-19.265 62-13c25.087 6.265 59.168 29.076 73 35 13.832 5.924 7.416-5.038 41-16l-40 258H0Z" fill="url(#d)"/><path d="M0 428c22.386-7.315 44.773-14.63 70-17 25.227-2.37 53.296.203 72 0s28.044-3.183 51-4c22.956-.817 59.529.53 83 8 23.471 7.47 33.842 21.064 50 19s38.104-19.784 66-24c27.896-4.216 61.744 5.073 83 17s29.92 26.494 52 27c22.08.506 57.573-13.048 80-17s31.788 1.696 51 7 48.276 10.262 72 7c23.724-3.262 42.108-14.744 66-22 23.892-7.256 53.29-10.285 75-12 21.71-1.715 35.73-2.116 59 2 23.27 4.116 55.792 12.747 69 15 13.208 2.253 7.104-1.874 41-6l-40 172H0Z" fill="url(#e)"/><path d="M0 514c18.284 3.206 36.568 6.413 62 12 25.432 5.587 58.013 13.556 79 13 20.987-.556 30.38-9.636 52-15 21.62-5.364 55.464-7.011 79-8 23.536-.989 36.764-1.318 55-3 18.236-1.682 41.48-4.717 64 1 22.52 5.717 44.319 20.184 65 20 20.681-.184 40.245-15.02 68-22 27.755-6.98 63.702-6.102 85 1 21.298 7.102 27.947 20.428 48 20 20.053-.428 53.51-14.61 80-23 26.49-8.39 46.012-10.989 69-5 22.988 5.989 49.44 20.564 68 15 18.56-5.564 29.228-31.267 54-28 24.772 3.267 63.65 35.505 78 44 14.35 8.495 4.175-6.752 34-22l-40 86H0Z" fill="url(#f)"/><path d="M0 599c23.671 7.911 47.343 15.822 67 21 19.657 5.178 35.3 7.623 57-5 21.7-12.623 49.457-40.312 71-38 21.543 2.312 36.871 34.627 61 45 24.129 10.373 57.059-1.196 83-16 25.941-14.804 44.894-32.843 63-31 18.106 1.843 35.365 23.568 59 32 23.635 8.432 53.645 3.572 77 1 23.355-2.572 40.056-2.857 60-9 19.944-6.143 43.13-18.146 65-11 21.87 7.146 42.423 33.439 65 33 22.577-.439 47.177-27.61 72-32 24.823-4.39 49.87 13.998 70 20 20.13 6.002 35.343-.384 57-6 21.657-5.616 49.76-10.462 63-11 13.24-.538 11.62 3.23 50 7l-40 1H0Z" fill="url(#gradient_7)"/></svg>