<svg width="1000" height="600" xmlns="http://www.w3.org/2000/svg"><defs><linearGradient id="a" gradientTransform="rotate(90)"><stop offset="5%" stop-color="#20124f"/><stop offset="95%" stop-color="#574d7b"/></linearGradient><linearGradient id="b" gradientTransform="rotate(90)"><stop offset="5%" stop-color="#152054"/><stop offset="95%" stop-color="#4f577e"/></linearGradient><linearGradient id="c" gradientTransform="rotate(90)"><stop offset="5%" stop-color="#0b2e59"/><stop offset="95%" stop-color="#486282"/></linearGradient><linearGradient id="d" gradientTransform="rotate(90)"><stop offset="5%" stop-color="#0c4159"/><stop offset="95%" stop-color="#487082"/></linearGradient><linearGradient id="e" gradientTransform="rotate(90)"><stop offset="5%" stop-color="#0c5459"/><stop offset="95%" stop-color="#487e82"/></linearGradient><linearGradient id="f" gradientTransform="rotate(90)"><stop offset="5%" stop-color="#0d6759"/><stop offset="95%" stop-color="#498d82"/></linearGradient><linearGradient id="g" gradientTransform="rotate(90)"><stop offset="5%" stop-color="#318043"/><stop offset="95%" stop-color="#649f72"/></linearGradient><linearGradient id="h" gradientTransform="rotate(90)"><stop offset="5%" stop-color="#569a2d"/><stop offset="95%" stop-color="#80b361"/></linearGradient><linearGradient id="i" gradientTransform="rotate(90)"><stop offset="5%" stop-color="#7ab317"/><stop offset="95%" stop-color="#9bc651"/></linearGradient><linearGradient id="j" gradientTransform="rotate(90)"><stop offset="5%" stop-color="#87b92f"/><stop offset="95%" stop-color="#a5ca63"/></linearGradient><linearGradient id="k" gradientTransform="rotate(90)"><stop offset="5%" stop-color="#93bf47"/><stop offset="95%" stop-color="#aecf75"/></linearGradient><linearGradient id="l" gradientTransform="rotate(90)"><stop offset="5%" stop-color="#a0c55f"/><stop offset="95%" stop-color="#b7d387"/></linearGradient></defs><path fill="#2a044a" d="M0 0h1000v600H0z"/><path d="M0 46c16.484-1.207 32.968-2.413 51-6 18.032-3.587 37.612-9.553 57-6 19.388 3.553 38.584 16.627 59 24 20.416 7.373 42.053 9.047 59 1 16.947-8.047 29.206-25.815 48-25 18.794.815 44.125 20.213 65 25 20.875 4.787 37.295-5.037 51-9 13.705-3.963 24.696-2.065 46-4s52.922-7.704 72-8c19.078-.296 25.615 4.88 39 11 13.385 6.12 33.616 13.186 55 8s43.92-22.624 66-23c22.08-.376 43.704 16.308 59 23s24.264 3.391 43 0 47.242-6.873 70-10c22.758-3.127 39.77-5.9 53-8 13.23-2.1 22.677-3.527 43-2 20.323 1.527 51.52 6.008 64 8 12.48 1.992 6.24 1.496 40 1l-40 554H0Z" fill="url(#a)"/><path d="M0 92c14.05-.49 28.1-.981 49-4s48.65-8.565 69-6c20.35 2.565 33.3 13.243 48 16 14.7 2.757 31.152-2.406 51-6s43.094-5.618 62-4c18.906 1.618 33.472 6.876 51 11s38.016 7.112 59 5 42.462-9.324 61-15c18.538-5.676 34.137-9.816 53-8 18.863 1.816 40.99 9.589 58 8 17.01-1.589 28.9-12.54 48-10 19.1 2.54 45.41 18.57 65 19 19.59.43 32.46-14.74 50-17s39.75 8.388 56 13 26.542 3.186 46-2 48.081-14.132 67-13c18.919 1.132 28.132 12.343 49 15s53.39-3.24 65-5c11.61-1.76 2.305.62 33 3l-40 508H0Z" fill="url(#b)"/><path d="M0 138c20.935 2.262 41.87 4.524 59 8 17.13 3.476 30.453 8.166 46 3s33.319-20.19 53-22c19.681-1.81 41.272 9.592 61 12 19.728 2.408 37.592-4.178 56-5 18.408-.822 37.361 4.119 58 4 20.639-.119 42.964-5.298 60-6s28.783 3.074 47 1 42.904-9.996 64-8c21.096 1.996 38.603 13.91 55 16s31.686-5.645 51-10 42.653-5.33 62-2 34.7 10.964 52 14c17.3 3.036 36.545 1.475 57 1 20.455-.475 42.12.138 59-1 16.88-1.138 28.978-4.027 47-5 18.022-.973 41.967-.031 62-2s36.152-6.848 44-7c7.848-.152 7.424 4.424 47 9l-40 462H0Z" fill="url(#c)"/><path d="M0 184c20.107 5.225 40.213 10.45 60 9 19.787-1.45 39.253-9.572 57-8 17.747 1.572 33.773 12.84 49 11 15.227-1.84 29.655-16.79 50-18 20.345-1.21 46.609 11.32 68 16s37.91 1.512 54-1c16.09-2.512 31.75-4.37 48-7s33.093-6.035 52-3c18.907 3.035 39.878 12.51 60 12 20.122-.51 39.394-11.004 56-17s30.545-7.494 49-6c18.455 1.494 41.425 5.98 63 8 21.575 2.02 41.753 1.576 59 0s31.562-4.285 51-5c19.438-.715 43.999.562 63 1 19.001.438 32.444.035 47 0 14.556-.035 30.227.298 50 2s43.65 4.772 55 6c11.35 1.228 10.175.614 49 0l-40 416H0Z" fill="url(#d)"/><path d="M0 230c14.625-.942 29.25-1.884 47-3s38.624-2.406 59-6c20.376-3.594 40.252-9.492 60-4 19.748 5.492 39.367 22.374 59 25 19.633 2.626 39.28-9.004 56-9 16.72.004 30.511 11.642 46 9 15.489-2.642 32.674-19.565 53-21 20.326-1.435 43.793 12.617 65 14 21.207 1.383 40.153-9.904 59-13s37.595 1.998 55 4 33.468.912 53 5c19.532 4.088 42.532 13.354 62 11 19.468-2.354 35.404-16.327 51-22 15.596-5.673 30.853-3.046 50-2 19.147 1.046 42.183.512 60 6 17.817 5.488 30.415 16.997 46 18 15.585 1.003 34.158-8.5 57-15s49.955-10 61-9c11.045 1 6.023 6.5 41 12l-40 370H0Z" fill="url(#e)"/><path d="M0 276c16.14-4.898 32.279-9.796 50-8 17.721 1.796 37.024 10.285 58 13s43.627-.345 61-3c17.373-2.655 29.469-4.905 46-5 16.531-.095 37.498 1.966 60 5 22.502 3.034 46.538 7.04 64 9 17.462 1.96 28.351 1.874 47-4 18.649-5.874 45.058-17.535 63-16 17.942 1.535 27.418 16.267 45 17 17.582.733 43.27-12.533 63-17 19.73-4.467 33.503-.135 52 1s41.72-.929 62-1c20.28-.071 37.619 1.85 54 3s31.805 1.53 50 5c18.195 3.47 39.16 10.032 60 10 20.84-.032 41.555-6.658 59-9 17.445-2.342 31.62-.4 53 0s49.966-.743 60-1c10.034-.257 1.517.371 33 1l-40 324H0Z" fill="url(#f)"/><path d="M0 323c20.394 4.13 40.788 8.259 58 9 17.212.741 31.241-1.905 50-7s42.247-12.638 64-13c21.753-.362 41.772 6.455 58 10s28.667 3.816 45 4c16.333.184 36.56.282 56 1 19.44.718 38.092 2.056 56 2 17.908-.056 35.07-1.506 52-2s33.627-.033 54 1c20.373 1.033 44.423 2.639 63 5 18.577 2.361 31.682 5.478 48 1s35.848-16.55 58-16c22.152.55 46.927 13.719 66 18 19.073 4.281 32.444-.327 51-3 18.556-2.673 42.295-3.412 62-2s35.374 4.977 49 3c13.626-1.977 25.207-9.494 46-14s50.798-6.002 63-5c12.202 1.002 6.601 4.5 41 8l-40 277H0Z" fill="url(#g)"/><path d="M0 369c18.583 8.073 37.166 16.147 55 13 17.834-3.147 34.92-17.514 53-19 18.08-1.486 37.156 9.91 57 15s40.455 3.872 59 4c18.545.128 35.024 1.602 54-4s40.448-18.28 58-21c17.552-2.72 31.184 4.518 48 10s36.815 9.208 57 6c20.185-3.208 40.554-13.35 60-16 19.446-2.65 37.968 2.19 57 5 19.032 2.81 38.575 3.587 56 6 17.425 2.413 32.732 6.461 52 8 19.268 1.539 42.496.568 60 2 17.504 1.432 29.282 5.267 45 1s35.375-16.635 58-22c22.625-5.365 48.22-3.727 67 3s30.749 18.542 51 22c20.251 3.458 48.786-1.44 59-5 10.214-3.56 2.107-5.78 34-8l-40 231H0Z" fill="url(#h)"/><path d="M0 415c15.757 6.228 31.513 12.457 51 12 19.487-.457 42.703-7.598 62-11 19.297-3.402 34.674-3.063 54 1 19.326 4.063 42.602 11.851 62 9 19.398-2.851 34.92-16.342 51-22 16.08-5.658 32.72-3.483 51 3 18.28 6.483 38.203 17.273 58 21 19.797 3.727 39.47.389 59-2 19.53-2.389 38.92-3.83 57-9s34.849-14.071 51-15c16.151-.929 31.684 6.115 51 12s42.417 10.612 62 7 35.65-15.565 54-16c18.35-.435 38.984 10.646 56 12 17.016 1.354 30.413-7.018 47-7 16.587.018 36.364 8.428 54 12 17.636 3.572 33.133 2.308 56 1 22.867-1.308 53.105-2.66 65-4 11.895-1.34 5.448-2.67 39-4l-40 185H0Z" fill="url(#i)"/><path d="M0 461c17.478 8.505 34.956 17.01 53 14 18.044-3.01 36.654-17.533 55-23 18.346-5.467 36.428-1.879 58 5 21.572 6.879 46.632 17.047 64 16 17.368-1.047 27.042-13.308 41-17 13.958-3.692 32.198 1.187 55 6s50.166 9.56 69 10c18.834.44 29.137-3.427 45-7s37.285-6.852 58-3c20.715 3.852 40.722 14.834 57 12 16.278-2.834 28.828-19.486 49-21 20.172-1.514 47.967 12.11 66 12 18.033-.11 26.306-13.953 44-12 17.694 1.953 44.81 19.703 65 21 20.19 1.297 33.451-13.86 49-16 15.549-2.14 33.384 8.736 55 10 21.616 1.264 47.012-7.083 67-12s34.568-6.405 42-5c7.432 1.405 7.716 5.702 48 10l-40 139H0Z" fill="url(#j)"/><path d="M0 507c18.487-.157 36.973-.313 55 2s35.594 7.097 52 10c16.406 2.903 31.652 3.927 52-2s45.798-18.805 64-19c18.202-.195 29.154 12.294 47 13 17.846.706 42.584-10.371 63-12 20.416-1.629 36.508 6.19 56 12 19.492 5.81 42.383 9.608 59 6 16.617-3.608 26.96-14.623 44-17 17.04-2.377 40.78 3.883 60 9s33.924 9.09 53 10c19.076.91 42.526-1.245 63-4 20.474-2.755 37.974-6.11 53-6 15.026.11 27.58 3.686 48 6s48.706 3.366 70 0c21.294-3.366 35.594-11.15 50-15 14.406-3.85 28.917-3.767 50-2s48.738 5.22 60 7c11.262 1.78 6.131 1.89 41 2l-40 93H0Z" fill="url(#k)"/><path d="M0 553c16.279 3.551 32.557 7.102 50 3 17.443-4.102 36.05-15.857 56-15 19.95.857 41.242 14.326 62 20 20.758 5.674 40.98 3.554 58 2 17.02-1.554 30.836-2.54 47-1s34.677 5.607 55 3 42.458-11.889 63-13c20.542-1.111 39.491 5.948 58 9 18.509 3.052 36.576 2.098 52-3s28.204-14.34 47-14c18.796.34 43.607 10.26 65 13s39.366-1.7 59-4 40.929-2.458 57-2c16.071.458 26.92 1.534 46 6s46.392 12.324 65 8c18.608-4.324 28.514-20.83 43-25 14.486-4.17 33.554 3.992 56 9 22.446 5.008 48.27 6.86 59 7 10.73.14 6.365-1.43 42-3l-40 47H0Z" fill="url(#l)"/><path d="M0 599c17.429-4.26 34.858-8.52 52-8 17.142.52 33.998 5.823 55 9 21.002 3.177 46.15 4.23 64 6 17.85 1.77 28.4 4.259 46 5 17.6.741 42.25-.264 63-2s37.602-4.202 56-9c18.398-4.798 38.342-11.929 57-10 18.658 1.929 36.028 12.917 51 12 14.972-.917 27.544-13.738 47-16 19.456-2.262 45.797 6.036 65 9 19.203 2.964 31.269.593 48 4s38.127 12.59 61 13c22.873.41 47.222-7.956 64-14s25.986-9.765 43-10c17.014-.235 41.835 3.017 60 8 18.165 4.983 29.673 11.696 49 14 19.327 2.304 46.473.197 71-1s46.436-1.485 54-3 .782-4.258 34-7l-40 1H0Z" fill="url(#gradient_13)"/></svg>